<?xml version="1.0" standalone="no"?>
<!DOCTYPE svg PUBLIC "-//W3C//DTD SVG 20010904//EN"
 "http://www.w3.org/TR/2001/REC-SVG-20010904/DTD/svg10.dtd">
<svg version="1.0" xmlns="http://www.w3.org/2000/svg"
 width="1024.000000pt" height="1024.000000pt" viewBox="0 0 1024.000000 1024.000000"
 preserveAspectRatio="xMidYMid meet">

<g transform="translate(0.000000,1024.000000) scale(0.100000,-0.100000)"
fill="#000000" stroke="none">
<path d="M0 5120 l0 -5120 5120 0 5120 0 0 5120 0 5120 -5120 0 -5120 0 0
-5120z m2515 3640 c222 -32 405 -121 564 -274 101 -98 195 -240 230 -348 7
-21 18 -38 24 -38 6 0 81 33 167 74 334 159 675 254 1125 313 176 23 825 26
995 5 505 -63 867 -165 1231 -347 68 -35 94 -44 98 -34 19 57 113 222 160 281
223 282 594 423 947 363 365 -63 679 -303 848 -649 85 -174 123 -353 113 -545
-19 -383 -228 -712 -565 -886 -61 -32 -63 -13 15 -199 195 -466 414 -1209 483
-1639 55 -341 40 -647 -45 -913 -148 -460 -579 -873 -1165 -1115 -63 -26 -115
-49 -115 -52 0 -2 41 -38 91 -79 488 -410 864 -989 1082 -1668 37 -116 93
-310 89 -310 -1 0 -1684 -1 -3740 -3 -3397 -2 -3737 -1 -3737 14 0 22 53 212
97 344 172 525 455 1007 805 1370 94 98 251 240 337 306 l34 25 -119 48 c-329
133 -595 305 -814 525 -228 230 -358 469 -426 781 -27 120 -27 504 -1 670 74
469 308 1259 516 1743 28 65 51 121 51 123 0 2 -33 20 -72 40 -145 73 -285
196 -377 333 -180 266 -230 626 -129 940 94 295 304 548 568 685 202 105 425
146 635 116z"/>
<path d="M3472 6985 c-458 -83 -781 -424 -868 -916 -21 -120 -21 -353 0 -471
57 -320 228 -602 480 -789 81 -60 285 -169 318 -169 26 0 31 -18 7 -25 -12 -4
-60 -46 -108 -94 -148 -146 -217 -313 -228 -547 -22 -468 222 -836 757 -1139
566 -321 1422 -402 2145 -204 429 118 829 371 1050 664 241 320 273 799 75
1102 -47 71 -133 161 -191 200 -22 14 -36 29 -32 33 4 4 33 15 63 25 139 44
316 160 428 280 254 271 373 626 342 1017 -41 513 -319 877 -775 1015 -83 25
-103 27 -275 27 -203 1 -277 -10 -445 -66 -266 -89 -468 -219 -740 -477 -174
-165 -217 -191 -315 -191 -98 0 -143 27 -314 190 -160 152 -218 199 -346 282
-326 212 -720 309 -1028 253z m625 -736 c225 -74 387 -299 424 -589 12 -95 4
-300 -12 -300 -5 0 -9 15 -9 34 0 54 -37 158 -79 224 -70 107 -165 159 -278
150 -72 -5 -118 -27 -172 -81 -238 -235 -107 -741 203 -783 l47 -7 -28 -17
c-183 -109 -426 -78 -593 77 -311 288 -317 892 -12 1175 146 135 329 177 509
117z m2435 0 c194 -65 349 -262 400 -506 26 -127 21 -328 -12 -442 -91 -317
-356 -523 -619 -480 -72 11 -161 43 -191 67 -20 17 -20 17 22 18 201 5 369
282 328 539 -22 137 -99 257 -195 301 -110 52 -236 23 -328 -75 -58 -62 -84
-113 -112 -225 l-23 -91 -7 80 c-18 191 15 382 93 530 49 93 165 209 252 253
128 64 263 75 392 31z m-1169 -1174 c175 -36 286 -133 287 -250 0 -91 -88
-209 -242 -325 -105 -79 -170 -103 -274 -98 -69 3 -91 8 -156 41 -97 48 -263
201 -302 279 -74 148 12 283 217 343 121 35 323 39 470 10z m-1545 -884 c12
-6 40 -36 62 -65 103 -136 360 -302 595 -386 215 -76 429 -110 683 -110 328 1
578 56 841 186 161 79 270 159 392 286 104 109 130 122 204 106 68 -15 115
-75 115 -145 0 -58 -47 -128 -157 -233 -119 -115 -245 -201 -418 -285 -307
-150 -603 -217 -970 -218 -374 -1 -696 69 -1000 218 -269 131 -517 332 -572
465 -56 132 93 252 225 181z"/>
</g>
</svg>
